<svg width="263" height="62" viewBox="0 0 263 62" fill="none" xmlns="http://www.w3.org/2000/svg">
<path d="M14.52 21.912C14.52 22.36 14.368 22.688 14.064 22.896C13.76 23.104 13.36 23.216 12.864 23.232C12.304 23.232 11.664 23.008 10.944 22.56C10.24 22.128 9.49599 21.544 8.71199 20.808C7.92799 20.072 7.15999 19.256 6.40799 18.36C5.65599 17.448 4.95999 16.536 4.31999 15.624C3.90399 17.336 3.55199 18.696 3.26399 19.704C2.97599 20.696 2.68799 21.408 2.39999 21.84C2.12799 22.272 1.79999 22.488 1.41599 22.488C0.855988 22.488 0.479988 22.248 0.287988 21.768C0.0959878 21.272 -1.21593e-05 20.68 -1.21593e-05 19.992C-1.21593e-05 19.512 0.0319878 19.024 0.0959877 18.528C0.175988 18.016 0.295988 17.416 0.455988 16.728C0.615988 16.024 0.831988 15.152 1.10399 14.112C0.751988 13.776 0.575988 13.4 0.575988 12.984C0.575988 12.68 0.655988 12.384 0.815988 12.096C0.991988 11.792 1.31999 11.544 1.79999 11.352C2.24799 9.88003 2.63199 8.68003 2.95199 7.75203C3.27199 6.80803 3.55999 6.08003 3.81599 5.56803C4.07199 5.05603 4.30399 4.70403 4.51199 4.51203C4.73599 4.32003 4.96799 4.22403 5.20799 4.22403C5.65599 4.22403 5.99999 4.35203 6.23999 4.60803C6.47999 4.86403 6.59999 5.31203 6.59999 5.95203C6.59999 6.19203 6.52799 6.68003 6.38399 7.41603C6.25599 8.13603 6.00799 9.20003 5.63999 10.608C7.04799 9.52003 8.34399 8.44803 9.52799 7.39203C10.712 6.33603 11.744 5.37603 12.624 4.51203C13.52 3.64803 14.248 2.96003 14.808 2.44803C15.368 1.93603 15.728 1.68003 15.888 1.68003C16.352 1.68003 16.72 1.83203 16.992 2.13603C17.28 2.42403 17.424 2.75203 17.424 3.12003C17.424 3.48803 17.264 3.87203 16.944 4.27203C16.592 4.68803 16.12 5.21603 15.528 5.85603C14.936 6.49603 14.272 7.19203 13.536 7.94403C12.8 8.68003 12.024 9.41603 11.208 10.152C10.392 10.872 9.56799 11.528 8.73599 12.12C7.91999 12.712 7.12799 13.176 6.35999 13.512C6.51999 13.672 6.68799 13.856 6.86399 14.064C7.05599 14.256 7.25599 14.472 7.46399 14.712C8.00799 15.304 8.65599 15.96 9.40799 16.68C10.16 17.384 10.928 18.08 11.712 18.768C12.512 19.44 13.232 20.032 13.872 20.544C14.096 20.752 14.256 20.96 14.352 21.168C14.464 21.36 14.52 21.608 14.52 21.912ZM19.1327 23.448C18.7327 23.448 18.3887 23.304 18.1007 23.016C17.8287 22.728 17.6927 22.312 17.6927 21.768C17.6927 21.528 17.7247 21.136 17.7887 20.592C17.8687 20.032 17.9647 19.392 18.0767 18.672C18.2047 17.952 18.3247 17.2 18.4367 16.416C18.5647 15.632 18.6687 14.888 18.7487 14.184C18.8447 13.48 18.9087 12.88 18.9407 12.384C18.9727 11.776 19.1327 11.344 19.4207 11.088C19.7087 10.816 20.0527 10.68 20.4527 10.68C20.7727 10.68 21.0607 10.76 21.3167 10.92C21.5887 11.064 21.7567 11.376 21.8207 11.856C21.9007 12.32 21.9087 12.992 21.8447 13.872C22.5487 12.592 23.2607 11.448 23.9807 10.44C24.7167 9.43203 25.4847 8.63203 26.2847 8.04003C27.6127 7.03203 28.8127 6.52803 29.8847 6.52803C30.4927 6.52803 30.8927 6.66403 31.0847 6.93603C31.2767 7.20803 31.3727 7.48803 31.3727 7.77603C31.3727 7.96803 31.3247 8.14403 31.2287 8.30403C31.1487 8.46403 30.9727 8.63203 30.7007 8.80803C30.4287 8.98403 30.0127 9.21603 29.4527 9.50403C28.7007 9.88803 27.9567 10.392 27.2207 11.016C26.5007 11.64 25.7807 12.44 25.0607 13.416C24.3407 14.392 23.6127 15.592 22.8767 17.016C22.1407 18.44 21.3807 20.136 20.5967 22.104C20.4527 22.648 20.2447 23.008 19.9727 23.184C19.7167 23.36 19.4367 23.448 19.1327 23.448ZM48.7281 11.544C49.1441 12.424 49.5601 13.352 49.9761 14.328C50.3921 15.304 50.7361 16.256 51.0081 17.184C51.2961 18.096 51.4401 18.92 51.4401 19.656C51.4401 20.52 51.2161 21.24 50.7681 21.816C50.3361 22.376 49.7761 22.816 49.0881 23.136C48.4001 23.472 47.6721 23.704 46.9041 23.832C46.1361 23.96 45.4241 24.024 44.7681 24.024C44.2881 24.024 43.8881 23.92 43.5681 23.712C43.2641 23.52 43.1121 23.2 43.1121 22.752C43.1121 22.368 43.2481 22.096 43.5201 21.936C43.7921 21.76 44.1361 21.64 44.5521 21.576C44.8721 21.528 45.2561 21.464 45.7041 21.384C46.1681 21.304 46.6241 21.184 47.0721 21.024C47.5201 20.864 47.8881 20.664 48.1761 20.424C48.4801 20.168 48.6321 19.848 48.6321 19.464C48.6321 18.632 48.4481 17.784 48.0801 16.92C47.7121 16.04 47.3201 15.144 46.9041 14.232C46.1201 15.336 45.2081 16.432 44.1681 17.52C43.1441 18.592 42.0641 19.568 40.9281 20.448C39.8081 21.312 38.6961 22 37.5921 22.512C36.5041 23.04 35.5121 23.304 34.6161 23.304C33.3361 23.304 32.2801 22.88 31.4481 22.032C30.6321 21.184 30.2241 19.872 30.2241 18.096C30.2241 17.072 30.3441 16.056 30.5841 15.048C30.8241 14.024 31.1201 13.096 31.4721 12.264C31.8401 11.432 32.2161 10.768 32.6001 10.272C32.9841 9.77603 33.3281 9.52803 33.6321 9.52803C33.9521 9.52803 34.2321 9.62403 34.4721 9.81603C34.7281 10.008 34.8561 10.336 34.8561 10.8C34.8561 10.992 34.7761 11.352 34.6161 11.88C34.4721 12.408 34.2961 13.032 34.0881 13.752C33.8961 14.472 33.7201 15.224 33.5601 16.008C33.4161 16.792 33.3441 17.52 33.3441 18.192C33.3441 18.88 33.4561 19.416 33.6801 19.8C33.9201 20.184 34.2801 20.376 34.7601 20.376C35.4001 20.376 36.1281 20.184 36.9441 19.8C37.7601 19.416 38.6001 18.904 39.4641 18.264C40.3441 17.624 41.1921 16.912 42.0081 16.128C42.8401 15.344 43.5841 14.536 44.2401 13.704C44.9121 12.872 45.4401 12.088 45.8241 11.352C45.7281 11 45.6481 10.648 45.5841 10.296C45.5361 9.94403 45.5121 9.58403 45.5121 9.21603C45.5121 8.33603 45.6801 7.61603 46.0161 7.05603C46.3521 6.48003 46.9121 6.19203 47.6961 6.19203C48.4001 6.19203 48.9281 6.42403 49.2801 6.88803C49.6321 7.35203 49.8081 7.96003 49.8081 8.71203C49.8081 9.12803 49.7041 9.57603 49.4961 10.056C49.3041 10.52 49.0481 11.016 48.7281 11.544ZM34.4961 7.24803C33.8721 7.24803 33.3921 7.08803 33.0561 6.76803C32.7361 6.44803 32.5761 6.01603 32.5761 5.47203C32.5761 4.86403 32.7921 4.37603 33.2241 4.00803C33.6561 3.62403 34.1521 3.43203 34.7121 3.43203C35.3361 3.43203 35.8321 3.60003 36.2001 3.93603C36.5681 4.27203 36.7521 4.75203 36.7521 5.37603C36.7521 5.64803 36.6481 5.93603 36.4401 6.24003C36.2481 6.52803 35.9841 6.76803 35.6481 6.96003C35.3121 7.15203 34.9281 7.24803 34.4961 7.24803ZM55.4526 24.264C54.7166 24.264 54.1886 24.056 53.8686 23.64C53.5486 23.224 53.3886 22.616 53.3886 21.816C53.3886 21.08 53.5246 20.12 53.7966 18.936C54.0846 17.736 54.4606 16.4 54.9246 14.928C55.4046 13.44 55.9406 11.912 56.5326 10.344C57.1246 8.76003 57.7406 7.20803 58.3806 5.68803C59.0206 4.15203 59.6446 2.74403 60.2526 1.46403C60.5406 0.904027 60.8446 0.520028 61.1646 0.312028C61.4846 0.104028 61.8366 2.81334e-05 62.2206 2.81334e-05C62.5886 2.81334e-05 62.9006 0.104028 63.1566 0.312028C63.4126 0.504028 63.5406 0.816028 63.5406 1.24803C63.5406 1.34403 63.4126 1.71203 63.1566 2.35203C62.9006 2.97603 62.5646 3.79203 62.1486 4.80003C61.7326 5.79203 61.2766 6.91203 60.7806 8.16003C60.2846 9.39203 59.7886 10.68 59.2926 12.024C58.7966 13.352 58.3486 14.664 57.9486 15.96C57.5486 17.256 57.2286 18.456 56.9886 19.56C57.5486 18.808 58.1486 17.976 58.7886 17.064C59.4446 16.136 60.1086 15.216 60.7806 14.304C61.4686 13.376 62.1406 12.528 62.7966 11.76C63.4686 10.992 64.0926 10.376 64.6686 9.91203C65.2446 9.44803 65.7486 9.21603 66.1806 9.21603C66.9806 9.21603 67.6206 9.44003 68.1006 9.88803C68.5966 10.32 68.8446 11.072 68.8446 12.144C68.8446 12.64 68.7486 13.24 68.5566 13.944C68.3646 14.632 68.1326 15.36 67.8606 16.128C67.6046 16.88 67.3806 17.608 67.1886 18.312C66.9966 19.016 66.9006 19.632 66.9006 20.16C66.9006 20.448 67.0366 20.592 67.3086 20.592C68.0926 20.592 68.8846 20.424 69.6846 20.088C70.5006 19.752 71.2766 19.336 72.0126 18.84C72.7646 18.328 73.4446 17.824 74.0526 17.328C74.6766 16.816 75.1806 16.392 75.5646 16.056C75.8366 15.8 76.0846 15.632 76.3086 15.552C76.5326 15.456 76.7406 15.408 76.9326 15.408C77.5886 15.408 77.9166 15.736 77.9166 16.392C77.9166 16.52 77.8926 16.68 77.8446 16.872C77.7966 17.048 77.6446 17.272 77.3886 17.544C77.1326 17.816 76.7486 18.2 76.2366 18.696C75.7246 19.192 75.1246 19.72 74.4366 20.28C73.7646 20.84 73.0286 21.376 72.2286 21.888C71.4446 22.384 70.6366 22.792 69.8046 23.112C68.9726 23.432 68.1646 23.592 67.3806 23.592C66.1966 23.592 65.2846 23.256 64.6446 22.584C64.0046 21.928 63.6846 21.032 63.6846 19.896C63.6846 19.112 63.8446 18.128 64.1646 16.944C64.4846 15.744 64.8446 14.52 65.2446 13.272C64.6846 13.816 64.1006 14.464 63.4926 15.216C62.8846 15.952 62.2686 16.736 61.6446 17.568C61.0206 18.384 60.4046 19.192 59.7966 19.992C59.2046 20.776 58.6366 21.496 58.0926 22.152C57.5486 22.792 57.0526 23.304 56.6046 23.688C56.1566 24.072 55.7726 24.264 55.4526 24.264ZM77.6904 22.392C77.3064 22.392 76.9224 22.264 76.5384 22.008C76.1704 21.736 75.8664 21.352 75.6264 20.856C75.3864 20.344 75.2664 19.728 75.2664 19.008C75.2664 18.048 75.3944 17.024 75.6504 15.936C75.9224 14.848 76.2504 13.76 76.6344 12.672C77.0184 11.584 77.3944 10.56 77.7624 9.60003C77.9384 9.13603 78.1544 8.82403 78.4104 8.66403C78.6664 8.48803 79.0024 8.40003 79.4184 8.40003C80.3624 8.40003 80.8344 8.87203 80.8344 9.81603C80.8344 9.97603 80.7624 10.288 80.6184 10.752C80.4744 11.2 80.2824 11.752 80.0424 12.408C79.8184 13.064 79.5784 13.776 79.3224 14.544C79.0824 15.296 78.8584 16.064 78.6504 16.848C78.4584 17.616 78.3064 18.344 78.1944 19.032C78.5624 18.472 78.9704 17.776 79.4184 16.944C79.8824 16.096 80.3704 15.208 80.8824 14.28C81.4104 13.352 81.9384 12.488 82.4664 11.688C82.9944 10.872 83.5144 10.208 84.0264 9.69603C84.5384 9.18403 85.0264 8.92803 85.4904 8.92803C85.8904 8.92803 86.2664 9.00803 86.6184 9.16803C86.9864 9.31203 87.3064 9.60003 87.5784 10.032C87.8504 10.448 88.0584 11.048 88.2024 11.832C88.3624 12.616 88.4424 13.648 88.4424 14.928C88.4424 15.568 88.4984 16.192 88.6104 16.8C88.7384 17.392 88.9464 17.888 89.2344 18.288C89.5224 18.672 89.9304 18.864 90.4584 18.864C91.3704 18.864 92.1864 18.696 92.9064 18.36C93.6264 18.024 94.2584 17.632 94.8024 17.184C95.3464 16.736 95.8024 16.344 96.1704 16.008C96.3944 15.784 96.5864 15.608 96.7464 15.48C96.9224 15.352 97.0664 15.288 97.1784 15.288C97.5144 15.288 97.7544 15.376 97.8984 15.552C98.0584 15.728 98.1384 15.968 98.1384 16.272C98.1384 16.432 98.0024 16.728 97.7304 17.16C97.4584 17.592 97.0744 18.088 96.5784 18.648C96.0984 19.192 95.5464 19.72 94.9224 20.232C94.2984 20.744 93.6264 21.168 92.9064 21.504C92.1864 21.84 91.4504 22.008 90.6984 22.008C89.4344 22.008 88.3864 21.784 87.5544 21.336C86.7384 20.872 86.1304 20.104 85.7304 19.032C85.3304 17.944 85.1304 16.464 85.1304 14.592C85.1304 14.544 85.1304 14.464 85.1304 14.352C85.1304 13.856 85.1224 13.416 85.1064 13.032C85.1064 12.648 85.0824 12.336 85.0344 12.096C84.7624 12.592 84.4344 13.184 84.0504 13.872C83.6824 14.56 83.2824 15.296 82.8504 16.08C82.4184 16.848 81.9704 17.608 81.5064 18.36C81.0424 19.096 80.5784 19.768 80.1144 20.376C79.6664 20.984 79.2344 21.472 78.8184 21.84C78.4024 22.208 78.0264 22.392 77.6904 22.392ZM97.5872 23.304C97.0752 23.304 96.6112 23.16 96.1952 22.872C95.7792 22.6 95.4512 22.24 95.2112 21.792C94.9712 21.328 94.8512 20.832 94.8512 20.304C94.8512 19.312 95.0672 18.344 95.4992 17.4C95.9472 16.456 96.5312 15.56 97.2512 14.712C97.9712 13.864 98.7552 13.088 99.6032 12.384C100.467 11.664 101.323 11.048 102.171 10.536C103.035 10.024 103.819 9.62403 104.523 9.33603C105.243 9.04803 105.803 8.90403 106.203 8.90403C106.667 8.90403 107.043 9.00803 107.331 9.21603C107.635 9.40803 107.787 9.71203 107.787 10.128C107.787 10.256 107.755 10.36 107.691 10.44C107.899 10.488 108.067 10.608 108.195 10.8C108.323 10.992 108.387 11.28 108.387 11.664C108.387 11.824 108.347 12.24 108.267 12.912C108.187 13.584 108.099 14.4 108.003 15.36C107.923 16.32 107.883 17.32 107.883 18.36C107.883 18.52 107.907 18.664 107.955 18.792C108.003 18.904 108.107 18.96 108.267 18.96C108.907 18.96 109.555 18.832 110.211 18.576C110.883 18.304 111.531 17.976 112.155 17.592C112.795 17.192 113.371 16.8 113.883 16.416C114.411 16.016 114.851 15.688 115.203 15.432C115.571 15.16 115.811 15.024 115.923 15.024C116.467 15.024 116.739 15.296 116.739 15.84C116.739 15.984 116.563 16.288 116.211 16.752C115.875 17.2 115.411 17.72 114.819 18.312C114.227 18.888 113.563 19.464 112.827 20.04C112.107 20.6 111.355 21.064 110.571 21.432C109.803 21.8 109.059 21.984 108.339 21.984C107.459 21.984 106.787 21.776 106.323 21.36C105.875 20.944 105.555 20.384 105.363 19.68C105.187 18.96 105.091 18.152 105.075 17.256C104.259 18.424 103.411 19.464 102.531 20.376C101.667 21.272 100.811 21.984 99.9632 22.512C99.1152 23.04 98.3232 23.304 97.5872 23.304ZM106.083 11.28C104.515 12.032 103.107 12.896 101.859 13.872C100.611 14.832 99.6192 15.84 98.8832 16.896C98.1632 17.952 97.8032 18.968 97.8032 19.944C97.8032 20.216 97.9312 20.352 98.1872 20.352C98.4912 20.352 98.8912 20.176 99.3872 19.824C99.8992 19.472 100.451 19.008 101.043 18.432C101.635 17.84 102.227 17.184 102.819 16.464C103.411 15.728 103.963 14.976 104.475 14.208C104.987 13.44 105.395 12.704 105.699 12C105.811 11.744 105.939 11.504 106.083 11.28ZM115.269 30.096C114.821 30.096 114.469 29.936 114.213 29.616C113.973 29.312 113.853 28.84 113.853 28.2C113.853 27.32 113.933 26.272 114.093 25.056C114.253 23.84 114.469 22.552 114.741 21.192C115.013 19.832 115.309 18.496 115.629 17.184C116.013 15.68 116.389 14.312 116.757 13.08C117.141 11.848 117.525 10.864 117.909 10.128C118.309 9.37603 118.709 9.00003 119.109 9.00003C119.477 9.00003 119.797 9.13603 120.069 9.40803C120.357 9.66403 120.501 10.048 120.501 10.56C120.501 10.928 120.405 11.456 120.213 12.144C120.021 12.816 119.781 13.656 119.493 14.664C120.037 13.768 120.597 12.888 121.173 12.024C121.765 11.16 122.365 10.376 122.973 9.67203C123.581 8.96803 124.173 8.40803 124.749 7.99203C125.325 7.57603 125.869 7.36803 126.381 7.36803C126.989 7.36803 127.525 7.54403 127.989 7.89603C128.469 8.24803 128.845 8.72803 129.117 9.33603C129.389 9.94403 129.525 10.632 129.525 11.4C129.525 12.824 129.269 14.208 128.757 15.552C128.245 16.88 127.533 18.072 126.621 19.128C125.725 20.184 124.677 21.024 123.477 21.648C122.277 22.256 120.981 22.56 119.589 22.56C119.189 22.56 118.821 22.52 118.485 22.44C118.165 22.376 117.869 22.296 117.597 22.2C117.405 23.224 117.221 24.272 117.045 25.344C116.885 26.432 116.717 27.576 116.541 28.776C116.349 29.656 115.925 30.096 115.269 30.096ZM126.621 10.2C126.269 10.2 125.821 10.44 125.277 10.92C124.749 11.4 124.173 12.032 123.549 12.816C122.925 13.584 122.293 14.424 121.653 15.336C121.029 16.232 120.429 17.112 119.853 17.976C119.293 18.84 118.813 19.592 118.413 20.232C119.629 20.104 120.701 19.784 121.629 19.272C122.557 18.744 123.349 18.104 124.005 17.352C124.661 16.6 125.189 15.808 125.589 14.976C126.005 14.128 126.309 13.304 126.501 12.504C126.693 11.704 126.789 11.008 126.789 10.416C126.789 10.272 126.733 10.2 126.621 10.2ZM132.922 23.448C132.522 23.448 132.178 23.304 131.89 23.016C131.618 22.728 131.482 22.312 131.482 21.768C131.482 21.528 131.514 21.136 131.578 20.592C131.658 20.032 131.754 19.392 131.866 18.672C131.994 17.952 132.114 17.2 132.226 16.416C132.354 15.632 132.458 14.888 132.538 14.184C132.634 13.48 132.698 12.88 132.73 12.384C132.762 11.776 132.922 11.344 133.21 11.088C133.498 10.816 133.842 10.68 134.242 10.68C134.562 10.68 134.85 10.76 135.106 10.92C135.378 11.064 135.546 11.376 135.61 11.856C135.69 12.32 135.698 12.992 135.634 13.872C136.338 12.592 137.05 11.448 137.77 10.44C138.506 9.43203 139.274 8.63203 140.074 8.04003C141.402 7.03203 142.602 6.52803 143.674 6.52803C144.282 6.52803 144.682 6.66403 144.874 6.93603C145.066 7.20803 145.162 7.48803 145.162 7.77603C145.162 7.96803 145.114 8.14403 145.018 8.30403C144.938 8.46403 144.762 8.63203 144.49 8.80803C144.218 8.98403 143.802 9.21603 143.242 9.50403C142.49 9.88803 141.746 10.392 141.01 11.016C140.29 11.64 139.57 12.44 138.85 13.416C138.13 14.392 137.402 15.592 136.666 17.016C135.93 18.44 135.17 20.136 134.386 22.104C134.242 22.648 134.034 23.008 133.762 23.184C133.506 23.36 133.226 23.448 132.922 23.448ZM145.165 22.752C144.717 22.752 144.317 22.6 143.965 22.296C143.629 21.992 143.461 21.496 143.461 20.808C143.461 20.44 143.509 19.92 143.605 19.248C143.717 18.576 143.861 17.848 144.037 17.064C144.213 16.264 144.405 15.472 144.613 14.688C144.837 13.904 145.053 13.208 145.261 12.6C145.469 11.976 145.653 11.512 145.813 11.208C146.021 10.84 146.213 10.616 146.389 10.536C146.581 10.44 146.765 10.392 146.941 10.392C147.261 10.392 147.557 10.488 147.829 10.68C148.117 10.872 148.261 11.296 148.261 11.952C148.261 12.208 148.213 12.624 148.117 13.2C148.021 13.76 147.901 14.416 147.757 15.168C147.613 15.92 147.453 16.696 147.277 17.496C147.117 18.296 146.957 19.056 146.797 19.776C146.653 20.48 146.533 21.072 146.437 21.552C146.357 21.952 146.189 22.248 145.933 22.44C145.693 22.648 145.437 22.752 145.165 22.752ZM147.925 8.01603C147.397 8.01603 146.909 7.86403 146.461 7.56003C146.013 7.24003 145.789 6.75203 145.789 6.09603C145.789 5.55203 145.925 5.11203 146.197 4.77603C146.469 4.44003 146.789 4.20003 147.157 4.05603C147.541 3.89603 147.877 3.81603 148.165 3.81603C148.453 3.81603 148.773 3.88003 149.125 4.00803C149.477 4.12003 149.781 4.33603 150.037 4.65603C150.309 4.96003 150.445 5.40003 150.445 5.97603C150.445 6.36003 150.309 6.71203 150.037 7.03203C149.765 7.33603 149.429 7.57603 149.029 7.75203C148.645 7.92803 148.277 8.01603 147.925 8.01603ZM155.239 28.992C154.343 28.992 153.527 28.936 152.791 28.824C152.055 28.728 151.335 28.568 150.631 28.344C149.927 28.12 149.167 27.824 148.351 27.456C148.015 27.296 147.735 27.128 147.511 26.952C147.287 26.776 147.175 26.512 147.175 26.16C147.175 25.648 147.335 25.256 147.655 24.984C147.959 24.728 148.383 24.6 148.927 24.6C149.215 24.6 149.583 24.696 150.031 24.888C150.479 25.096 150.991 25.328 151.567 25.584C152.159 25.856 152.815 26.088 153.535 26.28C154.255 26.488 155.031 26.592 155.863 26.592C156.711 26.592 157.503 26.24 158.239 25.536C158.975 24.832 159.567 23.84 160.015 22.56C160.479 21.296 160.711 19.8 160.711 18.072C160.711 17.672 160.703 17.24 160.687 16.776C160.671 16.296 160.655 15.792 160.639 15.264C160.063 16.352 159.439 17.368 158.767 18.312C158.095 19.256 157.399 20.024 156.679 20.616C155.975 21.192 155.263 21.48 154.543 21.48C153.663 21.48 153.023 21.272 152.623 20.856C152.239 20.424 152.047 19.744 152.047 18.816C152.047 18.032 152.103 17.176 152.215 16.248C152.343 15.304 152.511 14.352 152.719 13.392C152.927 12.432 153.167 11.52 153.439 10.656C153.727 9.77603 154.031 9.01603 154.351 8.37603C154.591 7.91203 154.959 7.68003 155.455 7.68003C155.775 7.68003 156.095 7.83203 156.415 8.13603C156.751 8.44003 156.919 8.84803 156.919 9.36003C156.919 9.64803 156.847 10.064 156.703 10.608C156.559 11.152 156.383 11.768 156.175 12.456C155.983 13.128 155.783 13.84 155.575 14.592C155.367 15.328 155.191 16.056 155.047 16.776C154.903 17.48 154.831 18.12 154.831 18.696C154.831 18.76 154.879 18.792 154.975 18.792C155.167 18.792 155.423 18.632 155.743 18.312C156.079 17.976 156.447 17.544 156.847 17.016C157.263 16.472 157.679 15.88 158.095 15.24C158.527 14.584 158.943 13.936 159.343 13.296C159.743 12.656 160.103 12.072 160.423 11.544C160.375 11.288 160.343 11.064 160.327 10.872C160.327 10.664 160.327 10.488 160.327 10.344C160.327 9.68803 160.439 9.14403 160.663 8.71203C160.903 8.28003 161.367 8.06403 162.055 8.06403C162.503 8.06403 162.847 8.23203 163.087 8.56803C163.327 8.88803 163.447 9.34403 163.447 9.93603C163.447 10.192 163.407 10.488 163.327 10.824C163.247 11.144 163.087 11.656 162.847 12.36L163.111 11.616C163.255 13.056 163.375 14.336 163.471 15.456C163.583 16.576 163.639 17.688 163.639 18.792C163.639 20.872 163.287 22.672 162.583 24.192C161.895 25.728 160.919 26.912 159.655 27.744C158.407 28.576 156.935 28.992 155.239 28.992ZM169.564 23.304C169.052 23.304 168.588 23.16 168.172 22.872C167.756 22.6 167.428 22.24 167.188 21.792C166.948 21.328 166.828 20.832 166.828 20.304C166.828 19.312 167.044 18.344 167.476 17.4C167.924 16.456 168.508 15.56 169.228 14.712C169.948 13.864 170.732 13.088 171.58 12.384C172.444 11.664 173.3 11.048 174.148 10.536C175.012 10.024 175.796 9.62403 176.5 9.33603C177.22 9.04803 177.78 8.90403 178.18 8.90403C178.644 8.90403 179.02 9.00803 179.308 9.21603C179.612 9.40803 179.764 9.71203 179.764 10.128C179.764 10.256 179.732 10.36 179.668 10.44C179.876 10.488 180.044 10.608 180.172 10.8C180.3 10.992 180.364 11.28 180.364 11.664C180.364 11.824 180.324 12.24 180.244 12.912C180.164 13.584 180.076 14.4 179.98 15.36C179.9 16.32 179.86 17.32 179.86 18.36C179.86 18.52 179.884 18.664 179.932 18.792C179.98 18.904 180.084 18.96 180.244 18.96C180.884 18.96 181.532 18.832 182.188 18.576C182.86 18.304 183.508 17.976 184.132 17.592C184.772 17.192 185.348 16.8 185.86 16.416C186.388 16.016 186.828 15.688 187.18 15.432C187.548 15.16 187.788 15.024 187.9 15.024C188.444 15.024 188.716 15.296 188.716 15.84C188.716 15.984 188.54 16.288 188.188 16.752C187.852 17.2 187.388 17.72 186.796 18.312C186.204 18.888 185.54 19.464 184.804 20.04C184.084 20.6 183.332 21.064 182.548 21.432C181.78 21.8 181.036 21.984 180.316 21.984C179.436 21.984 178.764 21.776 178.3 21.36C177.852 20.944 177.532 20.384 177.34 19.68C177.164 18.96 177.068 18.152 177.052 17.256C176.236 18.424 175.388 19.464 174.508 20.376C173.644 21.272 172.788 21.984 171.94 22.512C171.092 23.04 170.3 23.304 169.564 23.304ZM178.06 11.28C176.492 12.032 175.084 12.896 173.836 13.872C172.588 14.832 171.596 15.84 170.86 16.896C170.14 17.952 169.78 18.968 169.78 19.944C169.78 20.216 169.908 20.352 170.164 20.352C170.468 20.352 170.868 20.176 171.364 19.824C171.876 19.472 172.428 19.008 173.02 18.432C173.612 17.84 174.204 17.184 174.796 16.464C175.388 15.728 175.94 14.976 176.452 14.208C176.964 13.44 177.372 12.704 177.676 12C177.788 11.744 177.916 11.504 178.06 11.28ZM4.99199 61.48C4.54399 61.48 4.09599 61.2 3.64799 60.64C3.21599 60.08 2.81599 59.192 2.44799 57.976C2.07999 56.76 1.78399 55.176 1.55999 53.224C1.35199 51.256 1.24799 48.864 1.24799 46.048C1.24799 44.48 1.31999 43.256 1.46399 42.376C1.60799 41.48 1.79999 40.824 2.03999 40.408C2.29599 39.992 2.58399 39.728 2.90399 39.616C3.22399 39.504 3.55199 39.448 3.88799 39.448C4.31999 39.448 4.68799 39.608 4.99199 39.928C5.31199 40.248 5.47199 40.688 5.47199 41.248C5.47199 41.744 5.30399 42.36 4.96799 43.096C4.87199 43.88 4.80799 44.584 4.77599 45.208C4.75999 45.816 4.75199 46.464 4.75199 47.152C4.75199 48.24 4.76799 49.352 4.79999 50.488C4.84799 51.608 4.91199 52.688 4.99199 53.728C5.07199 54.752 5.15999 55.664 5.25599 56.464C5.65599 55.488 6.10399 54.408 6.59999 53.224C7.09599 52.04 7.59199 50.848 8.08799 49.648C8.59999 48.448 9.07999 47.32 9.52799 46.264C9.99199 45.192 10.384 44.28 10.704 43.528C11.04 42.776 11.264 42.264 11.376 41.992C11.776 41.032 12.208 40.344 12.672 39.928C13.136 39.512 13.608 39.304 14.088 39.304C14.472 39.304 14.8 39.424 15.072 39.664C15.344 39.904 15.48 40.36 15.48 41.032C15.48 41.16 15.352 41.536 15.096 42.16C14.856 42.784 14.52 43.584 14.088 44.56C13.672 45.52 13.2 46.592 12.672 47.776C12.16 48.944 11.632 50.152 11.088 51.4C10.496 52.76 9.90399 54.048 9.31199 55.264C8.73599 56.48 8.17599 57.552 7.63199 58.48C7.10399 59.408 6.60799 60.136 6.14399 60.664C5.69599 61.208 5.31199 61.48 4.99199 61.48ZM18.9966 60.208C18.0046 60.208 17.2046 59.864 16.5966 59.176C15.9886 58.472 15.6846 57.344 15.6846 55.792C15.6846 54.8 15.7966 53.808 16.0206 52.816C16.2606 51.808 16.5886 50.856 17.0046 49.96C17.4366 49.048 17.9326 48.24 18.4926 47.536C19.0686 46.832 19.7006 46.28 20.3886 45.88C21.0766 45.464 21.7886 45.256 22.5246 45.256C23.7726 45.256 24.7486 45.592 25.4525 46.264C26.1566 46.936 26.5086 47.792 26.5086 48.832C26.5086 49.632 26.2846 50.36 25.8366 51.016C25.4046 51.656 24.8126 52.232 24.0606 52.744C23.3086 53.256 22.4686 53.72 21.5406 54.136C20.6126 54.552 19.6606 54.928 18.6846 55.264C18.6046 55.84 18.5646 56.352 18.5646 56.8C18.5646 57.072 18.7166 57.208 19.0206 57.208C19.7406 57.208 20.5086 57.096 21.3246 56.872C22.1566 56.632 22.9966 56.328 23.8446 55.96C24.6926 55.576 25.5086 55.184 26.2926 54.784C27.0766 54.368 27.7886 53.976 28.4286 53.608C29.0846 53.224 29.6206 52.92 30.0366 52.696C30.4686 52.456 30.7486 52.336 30.8766 52.336C31.2286 52.336 31.4846 52.44 31.6446 52.648C31.8046 52.856 31.8846 53.08 31.8846 53.32C31.8846 53.432 31.6686 53.68 31.2366 54.064C30.8206 54.448 30.2446 54.904 29.5086 55.432C28.7886 55.944 27.9726 56.48 27.0606 57.04C26.1646 57.584 25.2286 58.104 24.2526 58.6C23.2926 59.08 22.3566 59.464 21.4446 59.752C20.5486 60.056 19.7326 60.208 18.9966 60.208ZM19.0926 53.128C19.7486 52.744 20.3966 52.344 21.0366 51.928C21.6926 51.496 22.2366 51.016 22.6686 50.488C23.1006 49.944 23.3166 49.312 23.3166 48.592C23.3166 48.384 23.2606 48.248 23.1486 48.184C23.0366 48.104 22.8766 48.064 22.6686 48.064C22.1086 48.064 21.5966 48.312 21.1326 48.808C20.6846 49.304 20.2846 49.944 19.9326 50.728C19.5966 51.496 19.3166 52.296 19.0926 53.128ZM32.5264 59.392C32.1424 59.392 31.7584 59.264 31.3744 59.008C31.0064 58.736 30.7024 58.352 30.4624 57.856C30.2224 57.344 30.1024 56.728 30.1024 56.008C30.1024 55.048 30.2304 54.024 30.4864 52.936C30.7584 51.848 31.0864 50.76 31.4704 49.672C31.8544 48.584 32.2304 47.56 32.5984 46.6C32.7744 46.136 32.9904 45.824 33.2464 45.664C33.5024 45.488 33.8384 45.4 34.2544 45.4C35.1984 45.4 35.6704 45.872 35.6704 46.816C35.6704 46.976 35.5984 47.288 35.4544 47.752C35.3104 48.2 35.1184 48.752 34.8784 49.408C34.6544 50.064 34.4144 50.776 34.1584 51.544C33.9184 52.296 33.6944 53.064 33.4864 53.848C33.2944 54.616 33.1424 55.344 33.0304 56.032C33.3984 55.472 33.8064 54.776 34.2544 53.944C34.7184 53.096 35.2064 52.208 35.7184 51.28C36.2464 50.352 36.7744 49.488 37.3024 48.688C37.8304 47.872 38.3504 47.208 38.8624 46.696C39.3744 46.184 39.8624 45.928 40.3264 45.928C40.7264 45.928 41.1024 46.008 41.4544 46.168C41.8224 46.312 42.1424 46.6 42.4144 47.032C42.6864 47.448 42.8944 48.048 43.0384 48.832C43.1984 49.616 43.2784 50.648 43.2784 51.928C43.2784 52.568 43.3344 53.192 43.4464 53.8C43.5744 54.392 43.7824 54.888 44.0704 55.288C44.3584 55.672 44.7664 55.864 45.2944 55.864C46.2064 55.864 47.0224 55.696 47.7424 55.36C48.4624 55.024 49.0944 54.632 49.6384 54.184C50.1824 53.736 50.6384 53.344 51.0064 53.008C51.2304 52.784 51.4224 52.608 51.5824 52.48C51.7584 52.352 51.9024 52.288 52.0144 52.288C52.3504 52.288 52.5904 52.376 52.7344 52.552C52.8944 52.728 52.9744 52.968 52.9744 53.272C52.9744 53.432 52.8384 53.728 52.5664 54.16C52.2944 54.592 51.9104 55.088 51.4144 55.648C50.9344 56.192 50.3824 56.72 49.7584 57.232C49.1344 57.744 48.4624 58.168 47.7424 58.504C47.0224 58.84 46.2864 59.008 45.5344 59.008C44.2704 59.008 43.2224 58.784 42.3904 58.336C41.5744 57.872 40.9664 57.104 40.5664 56.032C40.1664 54.944 39.9664 53.464 39.9664 51.592C39.9664 51.544 39.9664 51.464 39.9664 51.352C39.9664 50.856 39.9584 50.416 39.9424 50.032C39.9424 49.648 39.9184 49.336 39.8704 49.096C39.5984 49.592 39.2704 50.184 38.8864 50.872C38.5184 51.56 38.1184 52.296 37.6864 53.08C37.2544 53.848 36.8064 54.608 36.3424 55.36C35.8784 56.096 35.4144 56.768 34.9504 57.376C34.5024 57.984 34.0704 58.472 33.6544 58.84C33.2384 59.208 32.8624 59.392 32.5264 59.392ZM63.7271 61.144C62.6391 61.144 61.6311 60.912 60.7031 60.448C59.7751 60 58.9271 59.408 58.1591 58.672C57.3911 57.92 56.7031 57.104 56.0951 56.224C55.5031 55.328 54.9991 54.448 54.5831 53.584C54.3911 54.464 54.2151 55.216 54.0551 55.84C53.9111 56.464 53.7911 56.984 53.6951 57.4C53.6151 57.72 53.5271 58.032 53.4311 58.336C53.3511 58.64 53.2231 58.888 53.0471 59.08C52.8711 59.272 52.6231 59.368 52.3031 59.368C51.6151 59.368 51.1751 59.136 50.9831 58.672C50.7911 58.192 50.6951 57.584 50.6951 56.848C50.6951 56.192 50.7991 55.328 51.0071 54.256C51.2311 53.184 51.5271 51.984 51.8951 50.656C52.2631 49.328 52.6871 47.96 53.1671 46.552C53.6631 45.128 54.1911 43.744 54.7511 42.4C55.3111 41.04 55.8711 39.808 56.4311 38.704C56.7831 38.032 57.0951 37.608 57.3671 37.432C57.6391 37.24 57.9591 37.144 58.3271 37.144C58.6951 37.144 58.9751 37.24 59.1671 37.432C59.3591 37.624 59.4551 37.88 59.4551 38.2C59.4551 38.408 59.4071 38.616 59.3111 38.824C59.2151 39.032 59.1111 39.288 58.9991 39.592C58.6311 40.408 58.2471 41.36 57.8471 42.448C57.4471 43.52 57.0631 44.632 56.6951 45.784C56.3271 46.92 55.9991 48 55.7111 49.024C56.4951 48.56 57.3671 48.112 58.3271 47.68C59.2871 47.232 60.2551 46.832 61.2311 46.48C62.2231 46.112 63.1511 45.824 64.0151 45.616C64.8791 45.408 65.6071 45.304 66.1991 45.304C66.6631 45.304 67.0151 45.44 67.2551 45.712C67.4951 45.984 67.6151 46.28 67.6151 46.6C67.6151 46.84 67.5431 47.08 67.3991 47.32C67.2551 47.56 66.9511 47.768 66.4871 47.944C64.9511 48.456 63.4231 48.976 61.9031 49.504C60.3991 50.032 58.7271 50.656 56.8871 51.376C57.2711 52.128 57.7191 52.904 58.2311 53.704C58.7431 54.488 59.2951 55.224 59.8871 55.912C60.4791 56.584 61.0871 57.136 61.7111 57.568C62.3351 57.984 62.9511 58.192 63.5591 58.192C64.4551 58.192 65.3191 58.016 66.1511 57.664C66.9831 57.296 67.7511 56.856 68.4551 56.344C69.1591 55.816 69.7751 55.304 70.3031 54.808C70.8471 54.312 71.2711 53.928 71.5751 53.656C71.7511 53.48 71.9191 53.352 72.0791 53.272C72.2551 53.192 72.4711 53.152 72.7271 53.152C73.0311 53.152 73.2631 53.248 73.4231 53.44C73.5991 53.616 73.6791 53.848 73.6631 54.136C73.6471 54.408 73.5111 54.68 73.2551 54.952C73.0471 55.176 72.7191 55.536 72.2711 56.032C71.8391 56.512 71.3111 57.048 70.6871 57.64C70.0791 58.216 69.3991 58.776 68.6471 59.32C67.9111 59.848 67.1271 60.28 66.2951 60.616C65.4631 60.968 64.6071 61.144 63.7271 61.144ZM73.3294 60.304C72.8174 60.304 72.3534 60.16 71.9374 59.872C71.5214 59.6 71.1934 59.24 70.9534 58.792C70.7134 58.328 70.5934 57.832 70.5934 57.304C70.5934 56.312 70.8094 55.344 71.2414 54.4C71.6894 53.456 72.2734 52.56 72.9934 51.712C73.7134 50.864 74.4974 50.088 75.3454 49.384C76.2094 48.664 77.0654 48.048 77.9134 47.536C78.7774 47.024 79.5614 46.624 80.2654 46.336C80.9854 46.048 81.5454 45.904 81.9454 45.904C82.4094 45.904 82.7854 46.008 83.0734 46.216C83.3774 46.408 83.5294 46.712 83.5294 47.128C83.5294 47.256 83.4974 47.36 83.4334 47.44C83.6414 47.488 83.8094 47.608 83.9374 47.8C84.0654 47.992 84.1294 48.28 84.1294 48.664C84.1294 48.824 84.0894 49.24 84.0094 49.912C83.9294 50.584 83.8414 51.4 83.7454 52.36C83.6654 53.32 83.6254 54.32 83.6254 55.36C83.6254 55.52 83.6494 55.664 83.6974 55.792C83.7454 55.904 83.8494 55.96 84.0094 55.96C84.6494 55.96 85.2974 55.832 85.9534 55.576C86.6254 55.304 87.2734 54.976 87.8974 54.592C88.5374 54.192 89.1134 53.8 89.6254 53.416C90.1534 53.016 90.5934 52.688 90.9454 52.432C91.3134 52.16 91.5534 52.024 91.6654 52.024C92.2094 52.024 92.4814 52.296 92.4814 52.84C92.4814 52.984 92.3054 53.288 91.9534 53.752C91.6174 54.2 91.1534 54.72 90.5614 55.312C89.9694 55.888 89.3054 56.464 88.5694 57.04C87.8494 57.6 87.0974 58.064 86.3134 58.432C85.5454 58.8 84.8014 58.984 84.0814 58.984C83.2014 58.984 82.5294 58.776 82.0654 58.36C81.6174 57.944 81.2974 57.384 81.1054 56.68C80.9294 55.96 80.8334 55.152 80.8174 54.256C80.0014 55.424 79.1534 56.464 78.2734 57.376C77.4094 58.272 76.5534 58.984 75.7054 59.512C74.8574 60.04 74.0654 60.304 73.3294 60.304ZM81.8254 48.28C80.2574 49.032 78.8494 49.896 77.6014 50.872C76.3534 51.832 75.3614 52.84 74.6254 53.896C73.9054 54.952 73.5454 55.968 73.5454 56.944C73.5454 57.216 73.6734 57.352 73.9294 57.352C74.2334 57.352 74.6334 57.176 75.1294 56.824C75.6414 56.472 76.1934 56.008 76.7854 55.432C77.3774 54.84 77.9694 54.184 78.5614 53.464C79.1534 52.728 79.7054 51.976 80.2174 51.208C80.7294 50.44 81.1374 49.704 81.4414 49C81.5534 48.744 81.6814 48.504 81.8254 48.28ZM107.744 47.296C107.744 47.488 107.68 47.656 107.552 47.8C107.424 47.944 107.264 48.056 107.072 48.136C106.8 48.248 106.328 48.392 105.656 48.568C104.984 48.744 104.168 48.944 103.208 49.168C102.264 49.392 101.248 49.624 100.16 49.864C99.0719 50.088 97.9839 50.304 96.8959 50.512C96.4799 52.048 96.0559 53.632 95.6239 55.264C95.1919 56.88 94.7599 58.472 94.3279 60.04C94.1679 60.6 93.9759 61.024 93.7519 61.312C93.5279 61.616 93.1439 61.768 92.5999 61.768C92.0079 61.768 91.6079 61.576 91.3999 61.192C91.2079 60.824 91.1839 60.32 91.3279 59.68C91.7439 57.936 92.1279 56.312 92.4799 54.808C92.8479 53.304 93.1439 52.088 93.3679 51.16C92.4079 51.32 91.5679 51.448 90.8479 51.544C90.1279 51.624 89.6159 51.656 89.3119 51.64C88.9759 51.608 88.6959 51.472 88.4719 51.232C88.2479 50.992 88.1439 50.696 88.1599 50.344C88.1919 50.024 88.3359 49.752 88.5919 49.528C88.8479 49.288 89.1519 49.144 89.5039 49.096C89.9999 49.048 90.6399 48.976 91.4239 48.88C92.2079 48.784 93.0719 48.672 94.0159 48.544C94.2239 47.728 94.4639 46.888 94.7359 46.024C95.0079 45.144 95.2879 44.304 95.5759 43.504C95.8799 42.688 96.1679 41.976 96.4399 41.368C96.7119 40.76 96.9599 40.32 97.1839 40.048C97.3599 39.84 97.5759 39.68 97.8319 39.568C98.1039 39.456 98.3679 39.4 98.6239 39.4C98.9599 39.4 99.2319 39.52 99.4399 39.76C99.6479 40 99.7519 40.28 99.7519 40.6C99.7519 40.728 99.7439 40.864 99.7279 41.008C99.7119 41.136 99.6799 41.264 99.6319 41.392C99.3279 42.192 98.9999 43.16 98.6479 44.296C98.3119 45.432 97.9599 46.68 97.5919 48.04C98.7919 47.864 99.9679 47.688 101.12 47.512C102.288 47.32 103.344 47.144 104.288 46.984C105.248 46.808 106.016 46.656 106.592 46.528C106.912 46.416 107.184 46.44 107.408 46.6C107.632 46.744 107.744 46.976 107.744 47.296ZM105.134 60.304C104.622 60.304 104.158 60.16 103.742 59.872C103.326 59.6 102.998 59.24 102.758 58.792C102.518 58.328 102.398 57.832 102.398 57.304C102.398 56.312 102.614 55.344 103.046 54.4C103.494 53.456 104.078 52.56 104.798 51.712C105.518 50.864 106.302 50.088 107.15 49.384C108.014 48.664 108.87 48.048 109.718 47.536C110.582 47.024 111.366 46.624 112.07 46.336C112.79 46.048 113.35 45.904 113.75 45.904C114.214 45.904 114.59 46.008 114.878 46.216C115.182 46.408 115.334 46.712 115.334 47.128C115.334 47.256 115.302 47.36 115.238 47.44C115.446 47.488 115.614 47.608 115.742 47.8C115.87 47.992 115.934 48.28 115.934 48.664C115.934 48.824 115.894 49.24 115.814 49.912C115.734 50.584 115.646 51.4 115.55 52.36C115.47 53.32 115.43 54.32 115.43 55.36C115.43 55.52 115.454 55.664 115.502 55.792C115.55 55.904 115.654 55.96 115.814 55.96C116.454 55.96 117.102 55.832 117.758 55.576C118.43 55.304 119.078 54.976 119.702 54.592C120.342 54.192 120.918 53.8 121.43 53.416C121.958 53.016 122.398 52.688 122.75 52.432C123.118 52.16 123.358 52.024 123.47 52.024C124.014 52.024 124.286 52.296 124.286 52.84C124.286 52.984 124.11 53.288 123.758 53.752C123.422 54.2 122.958 54.72 122.366 55.312C121.774 55.888 121.11 56.464 120.374 57.04C119.654 57.6 118.902 58.064 118.118 58.432C117.35 58.8 116.606 58.984 115.886 58.984C115.006 58.984 114.334 58.776 113.87 58.36C113.422 57.944 113.102 57.384 112.91 56.68C112.734 55.96 112.638 55.152 112.622 54.256C111.806 55.424 110.958 56.464 110.078 57.376C109.214 58.272 108.358 58.984 107.51 59.512C106.662 60.04 105.87 60.304 105.134 60.304ZM113.63 48.28C112.062 49.032 110.654 49.896 109.406 50.872C108.158 51.832 107.166 52.84 106.43 53.896C105.71 54.952 105.35 55.968 105.35 56.944C105.35 57.216 105.478 57.352 105.734 57.352C106.038 57.352 106.438 57.176 106.934 56.824C107.446 56.472 107.998 56.008 108.59 55.432C109.182 54.84 109.774 54.184 110.366 53.464C110.958 52.728 111.51 51.976 112.022 51.208C112.534 50.44 112.942 49.704 113.246 49C113.358 48.744 113.486 48.504 113.63 48.28ZM135.188 61.144C134.1 61.144 133.092 60.912 132.164 60.448C131.236 60 130.388 59.408 129.62 58.672C128.852 57.92 128.164 57.104 127.556 56.224C126.964 55.328 126.46 54.448 126.044 53.584C125.852 54.464 125.676 55.216 125.516 55.84C125.372 56.464 125.252 56.984 125.156 57.4C125.076 57.72 124.988 58.032 124.892 58.336C124.812 58.64 124.684 58.888 124.508 59.08C124.332 59.272 124.084 59.368 123.764 59.368C123.076 59.368 122.636 59.136 122.444 58.672C122.252 58.192 122.156 57.584 122.156 56.848C122.156 56.192 122.26 55.328 122.468 54.256C122.692 53.184 122.988 51.984 123.356 50.656C123.724 49.328 124.148 47.96 124.628 46.552C125.124 45.128 125.652 43.744 126.212 42.4C126.772 41.04 127.332 39.808 127.892 38.704C128.244 38.032 128.556 37.608 128.828 37.432C129.1 37.24 129.42 37.144 129.788 37.144C130.156 37.144 130.436 37.24 130.628 37.432C130.82 37.624 130.916 37.88 130.916 38.2C130.916 38.408 130.868 38.616 130.772 38.824C130.676 39.032 130.572 39.288 130.46 39.592C130.092 40.408 129.708 41.36 129.308 42.448C128.908 43.52 128.524 44.632 128.156 45.784C127.788 46.92 127.46 48 127.172 49.024C127.956 48.56 128.828 48.112 129.788 47.68C130.748 47.232 131.716 46.832 132.692 46.48C133.684 46.112 134.612 45.824 135.476 45.616C136.34 45.408 137.068 45.304 137.66 45.304C138.124 45.304 138.476 45.44 138.716 45.712C138.956 45.984 139.076 46.28 139.076 46.6C139.076 46.84 139.004 47.08 138.86 47.32C138.716 47.56 138.412 47.768 137.948 47.944C136.412 48.456 134.884 48.976 133.364 49.504C131.86 50.032 130.188 50.656 128.348 51.376C128.732 52.128 129.18 52.904 129.692 53.704C130.204 54.488 130.756 55.224 131.348 55.912C131.94 56.584 132.548 57.136 133.172 57.568C133.796 57.984 134.412 58.192 135.02 58.192C135.916 58.192 136.78 58.016 137.612 57.664C138.444 57.296 139.212 56.856 139.916 56.344C140.62 55.816 141.236 55.304 141.764 54.808C142.308 54.312 142.732 53.928 143.036 53.656C143.212 53.48 143.38 53.352 143.54 53.272C143.716 53.192 143.932 53.152 144.188 53.152C144.492 53.152 144.724 53.248 144.884 53.44C145.06 53.616 145.14 53.848 145.124 54.136C145.108 54.408 144.972 54.68 144.716 54.952C144.508 55.176 144.18 55.536 143.732 56.032C143.3 56.512 142.772 57.048 142.148 57.64C141.54 58.216 140.86 58.776 140.108 59.32C139.372 59.848 138.588 60.28 137.756 60.616C136.924 60.968 136.068 61.144 135.188 61.144ZM144.711 60.448C144.311 60.448 143.967 60.304 143.679 60.016C143.407 59.728 143.271 59.312 143.271 58.768C143.271 58.528 143.303 58.136 143.367 57.592C143.447 57.032 143.543 56.392 143.655 55.672C143.783 54.952 143.903 54.2 144.015 53.416C144.143 52.632 144.247 51.888 144.327 51.184C144.423 50.48 144.487 49.88 144.519 49.384C144.551 48.776 144.711 48.344 144.999 48.088C145.287 47.816 145.631 47.68 146.031 47.68C146.351 47.68 146.639 47.76 146.895 47.92C147.167 48.064 147.335 48.376 147.399 48.856C147.479 49.32 147.487 49.992 147.423 50.872C148.127 49.592 148.839 48.448 149.559 47.44C150.295 46.432 151.063 45.632 151.863 45.04C153.191 44.032 154.391 43.528 155.463 43.528C156.071 43.528 156.471 43.664 156.663 43.936C156.855 44.208 156.951 44.488 156.951 44.776C156.951 44.968 156.903 45.144 156.807 45.304C156.727 45.464 156.551 45.632 156.279 45.808C156.007 45.984 155.591 46.216 155.031 46.504C154.279 46.888 153.535 47.392 152.799 48.016C152.079 48.64 151.359 49.44 150.639 50.416C149.919 51.392 149.191 52.592 148.455 54.016C147.719 55.44 146.959 57.136 146.175 59.104C146.031 59.648 145.823 60.008 145.551 60.184C145.295 60.36 145.015 60.448 144.711 60.448ZM174.306 48.544C174.722 49.424 175.138 50.352 175.554 51.328C175.97 52.304 176.314 53.256 176.586 54.184C176.874 55.096 177.018 55.92 177.018 56.656C177.018 57.52 176.794 58.24 176.346 58.816C175.914 59.376 175.354 59.816 174.666 60.136C173.978 60.472 173.25 60.704 172.482 60.832C171.714 60.96 171.002 61.024 170.346 61.024C169.866 61.024 169.466 60.92 169.146 60.712C168.842 60.52 168.69 60.2 168.69 59.752C168.69 59.368 168.826 59.096 169.098 58.936C169.37 58.76 169.714 58.64 170.13 58.576C170.45 58.528 170.834 58.464 171.282 58.384C171.746 58.304 172.202 58.184 172.65 58.024C173.098 57.864 173.466 57.664 173.754 57.424C174.058 57.168 174.21 56.848 174.21 56.464C174.21 55.632 174.026 54.784 173.658 53.92C173.29 53.04 172.898 52.144 172.482 51.232C171.698 52.336 170.786 53.432 169.746 54.52C168.722 55.592 167.642 56.568 166.506 57.448C165.386 58.312 164.274 59 163.17 59.512C162.082 60.04 161.09 60.304 160.194 60.304C158.914 60.304 157.858 59.88 157.026 59.032C156.21 58.184 155.802 56.872 155.802 55.096C155.802 54.072 155.922 53.056 156.162 52.048C156.402 51.024 156.698 50.096 157.05 49.264C157.418 48.432 157.794 47.768 158.178 47.272C158.562 46.776 158.906 46.528 159.21 46.528C159.53 46.528 159.81 46.624 160.05 46.816C160.306 47.008 160.434 47.336 160.434 47.8C160.434 47.992 160.354 48.352 160.194 48.88C160.05 49.408 159.874 50.032 159.666 50.752C159.474 51.472 159.298 52.224 159.138 53.008C158.994 53.792 158.922 54.52 158.922 55.192C158.922 55.88 159.034 56.416 159.258 56.8C159.498 57.184 159.858 57.376 160.338 57.376C160.978 57.376 161.706 57.184 162.522 56.8C163.338 56.416 164.178 55.904 165.042 55.264C165.922 54.624 166.77 53.912 167.586 53.128C168.418 52.344 169.162 51.536 169.818 50.704C170.49 49.872 171.018 49.088 171.402 48.352C171.306 48 171.226 47.648 171.162 47.296C171.114 46.944 171.09 46.584 171.09 46.216C171.09 45.336 171.258 44.616 171.594 44.056C171.93 43.48 172.49 43.192 173.274 43.192C173.978 43.192 174.506 43.424 174.858 43.888C175.21 44.352 175.386 44.96 175.386 45.712C175.386 46.128 175.282 46.576 175.074 47.056C174.882 47.52 174.626 48.016 174.306 48.544ZM160.074 44.248C159.45 44.248 158.97 44.088 158.634 43.768C158.314 43.448 158.154 43.016 158.154 42.472C158.154 41.864 158.37 41.376 158.802 41.008C159.234 40.624 159.73 40.432 160.29 40.432C160.914 40.432 161.41 40.6 161.778 40.936C162.146 41.272 162.33 41.752 162.33 42.376C162.33 42.648 162.226 42.936 162.018 43.24C161.826 43.528 161.562 43.768 161.226 43.96C160.89 44.152 160.506 44.248 160.074 44.248ZM181.031 61.264C180.295 61.264 179.767 61.056 179.447 60.64C179.127 60.224 178.967 59.616 178.967 58.816C178.967 58.08 179.103 57.12 179.375 55.936C179.663 54.736 180.039 53.4 180.503 51.928C180.983 50.44 181.519 48.912 182.111 47.344C182.703 45.76 183.319 44.208 183.959 42.688C184.599 41.152 185.223 39.744 185.831 38.464C186.119 37.904 186.423 37.52 186.743 37.312C187.063 37.104 187.415 37 187.799 37C188.167 37 188.479 37.104 188.735 37.312C188.991 37.504 189.119 37.816 189.119 38.248C189.119 38.344 188.991 38.712 188.735 39.352C188.479 39.976 188.143 40.792 187.727 41.8C187.311 42.792 186.855 43.912 186.359 45.16C185.863 46.392 185.367 47.68 184.871 49.024C184.375 50.352 183.927 51.664 183.527 52.96C183.127 54.256 182.807 55.456 182.567 56.56C183.127 55.808 183.727 54.976 184.367 54.064C185.023 53.136 185.687 52.216 186.359 51.304C187.047 50.376 187.719 49.528 188.375 48.76C189.047 47.992 189.671 47.376 190.247 46.912C190.823 46.448 191.327 46.216 191.759 46.216C192.559 46.216 193.199 46.44 193.679 46.888C194.175 47.32 194.423 48.072 194.423 49.144C194.423 49.64 194.327 50.24 194.135 50.944C193.943 51.632 193.711 52.36 193.439 53.128C193.183 53.88 192.959 54.608 192.767 55.312C192.575 56.016 192.479 56.632 192.479 57.16C192.479 57.448 192.615 57.592 192.887 57.592C193.671 57.592 194.463 57.424 195.263 57.088C196.079 56.752 196.855 56.336 197.591 55.84C198.343 55.328 199.023 54.824 199.631 54.328C200.255 53.816 200.759 53.392 201.143 53.056C201.415 52.8 201.663 52.632 201.887 52.552C202.111 52.456 202.319 52.408 202.511 52.408C203.167 52.408 203.495 52.736 203.495 53.392C203.495 53.52 203.471 53.68 203.423 53.872C203.375 54.048 203.223 54.272 202.967 54.544C202.711 54.816 202.327 55.2 201.815 55.696C201.303 56.192 200.703 56.72 200.015 57.28C199.343 57.84 198.607 58.376 197.807 58.888C197.023 59.384 196.215 59.792 195.383 60.112C194.551 60.432 193.743 60.592 192.959 60.592C191.775 60.592 190.863 60.256 190.223 59.584C189.583 58.928 189.263 58.032 189.263 56.896C189.263 56.112 189.423 55.128 189.743 53.944C190.063 52.744 190.423 51.52 190.823 50.272C190.263 50.816 189.679 51.464 189.071 52.216C188.463 52.952 187.847 53.736 187.223 54.568C186.599 55.384 185.983 56.192 185.375 56.992C184.783 57.776 184.215 58.496 183.671 59.152C183.127 59.792 182.631 60.304 182.183 60.688C181.735 61.072 181.351 61.264 181.031 61.264ZM203.269 59.392C202.885 59.392 202.501 59.264 202.117 59.008C201.749 58.736 201.445 58.352 201.205 57.856C200.965 57.344 200.845 56.728 200.845 56.008C200.845 55.048 200.973 54.024 201.229 52.936C201.501 51.848 201.829 50.76 202.213 49.672C202.597 48.584 202.973 47.56 203.341 46.6C203.517 46.136 203.733 45.824 203.989 45.664C204.245 45.488 204.581 45.4 204.997 45.4C205.941 45.4 206.413 45.872 206.413 46.816C206.413 46.976 206.341 47.288 206.197 47.752C206.053 48.2 205.861 48.752 205.621 49.408C205.397 50.064 205.157 50.776 204.901 51.544C204.661 52.296 204.437 53.064 204.229 53.848C204.037 54.616 203.885 55.344 203.773 56.032C204.141 55.472 204.549 54.776 204.997 53.944C205.461 53.096 205.949 52.208 206.461 51.28C206.989 50.352 207.517 49.488 208.045 48.688C208.573 47.872 209.093 47.208 209.605 46.696C210.117 46.184 210.605 45.928 211.069 45.928C211.469 45.928 211.845 46.008 212.197 46.168C212.565 46.312 212.885 46.6 213.157 47.032C213.429 47.448 213.637 48.048 213.781 48.832C213.941 49.616 214.021 50.648 214.021 51.928C214.021 52.568 214.077 53.192 214.189 53.8C214.317 54.392 214.525 54.888 214.813 55.288C215.101 55.672 215.509 55.864 216.037 55.864C216.949 55.864 217.765 55.696 218.485 55.36C219.205 55.024 219.837 54.632 220.381 54.184C220.925 53.736 221.381 53.344 221.749 53.008C221.973 52.784 222.165 52.608 222.325 52.48C222.501 52.352 222.645 52.288 222.757 52.288C223.093 52.288 223.333 52.376 223.477 52.552C223.637 52.728 223.717 52.968 223.717 53.272C223.717 53.432 223.581 53.728 223.309 54.16C223.037 54.592 222.653 55.088 222.157 55.648C221.677 56.192 221.125 56.72 220.501 57.232C219.877 57.744 219.205 58.168 218.485 58.504C217.765 58.84 217.029 59.008 216.277 59.008C215.013 59.008 213.965 58.784 213.133 58.336C212.317 57.872 211.709 57.104 211.309 56.032C210.909 54.944 210.709 53.464 210.709 51.592C210.709 51.544 210.709 51.464 210.709 51.352C210.709 50.856 210.701 50.416 210.685 50.032C210.685 49.648 210.661 49.336 210.613 49.096C210.341 49.592 210.013 50.184 209.629 50.872C209.261 51.56 208.861 52.296 208.429 53.08C207.997 53.848 207.549 54.608 207.085 55.36C206.621 56.096 206.157 56.768 205.693 57.376C205.245 57.984 204.813 58.472 204.397 58.84C203.981 59.208 203.605 59.392 203.269 59.392ZM223.213 59.488C222.205 59.488 221.469 59.184 221.005 58.576C220.557 57.952 220.333 57.16 220.333 56.2C220.333 55.288 220.533 54.408 220.933 53.56C221.333 52.696 221.869 51.872 222.541 51.088C223.213 50.304 223.965 49.576 224.797 48.904C225.629 48.216 226.469 47.6 227.317 47.056C228.181 46.496 229.005 46.024 229.789 45.64C230.573 45.24 231.253 44.936 231.829 44.728C232.405 44.52 232.821 44.416 233.077 44.416C233.349 44.416 233.573 44.488 233.749 44.632C233.941 44.76 234.037 45.016 234.037 45.4C234.037 45.8 233.877 46.16 233.557 46.48C233.237 46.8 232.845 47.072 232.381 47.296C231.725 47.616 230.981 48.008 230.149 48.472C229.333 48.92 228.509 49.432 227.677 50.008C226.845 50.584 226.077 51.2 225.373 51.856C224.685 52.512 224.125 53.2 223.693 53.92C223.261 54.624 223.045 55.344 223.045 56.08C223.045 56.24 223.077 56.368 223.141 56.464C223.205 56.56 223.341 56.608 223.549 56.608C223.821 56.608 224.181 56.48 224.629 56.224C225.077 55.952 225.565 55.6 226.093 55.168C226.621 54.72 227.149 54.232 227.677 53.704C228.205 53.16 228.693 52.616 229.141 52.072C229.605 51.512 229.989 50.992 230.293 50.512C230.517 50.144 230.781 49.84 231.085 49.6C231.405 49.36 231.733 49.24 232.069 49.24C232.341 49.24 232.565 49.32 232.741 49.48C232.933 49.624 233.029 49.888 233.029 50.272C233.029 50.4 233.021 50.704 233.005 51.184C232.989 51.648 232.965 52.216 232.933 52.888C232.917 53.544 232.909 54.232 232.909 54.952C232.909 55.576 232.965 56.12 233.077 56.584C233.205 57.032 233.469 57.256 233.869 57.256C234.349 57.256 234.845 57.088 235.357 56.752C235.869 56.4 236.365 55.96 236.845 55.432C237.341 54.888 237.797 54.312 238.213 53.704C238.629 53.096 238.981 52.52 239.269 51.976C239.573 51.416 239.789 50.968 239.917 50.632C240.125 49.224 240.397 48.12 240.733 47.32C241.069 46.504 241.437 45.928 241.837 45.592C242.253 45.256 242.653 45.088 243.037 45.088C243.469 45.088 243.829 45.192 244.117 45.4C244.421 45.608 244.573 46.096 244.573 46.864C244.573 47.264 244.405 47.864 244.069 48.664C243.733 49.464 243.285 50.344 242.725 51.304C242.597 52.024 242.517 52.768 242.485 53.536C242.453 54.304 242.501 55.024 242.629 55.696C243.061 55.392 243.501 54.944 243.949 54.352C244.397 53.744 244.845 53.072 245.293 52.336C245.741 51.584 246.189 50.832 246.637 50.08C247.085 49.312 247.525 48.608 247.957 47.968C248.405 47.328 248.837 46.816 249.253 46.432C249.685 46.032 250.109 45.832 250.525 45.832C250.957 45.832 251.349 45.912 251.701 46.072C252.069 46.216 252.373 46.504 252.613 46.936C252.869 47.352 253.061 47.952 253.189 48.736C253.333 49.504 253.405 50.512 253.405 51.76C253.405 52.416 253.469 53.056 253.597 53.68C253.725 54.288 253.941 54.792 254.245 55.192C254.549 55.576 254.973 55.768 255.517 55.768C256.397 55.768 257.181 55.624 257.869 55.336C258.557 55.032 259.157 54.68 259.669 54.28C260.181 53.88 260.605 53.536 260.941 53.248C261.293 52.944 261.565 52.792 261.757 52.792C262.077 52.792 262.317 52.888 262.477 53.08C262.653 53.256 262.741 53.48 262.741 53.752C262.741 53.912 262.605 54.192 262.333 54.592C262.077 54.976 261.717 55.408 261.253 55.888C260.805 56.352 260.277 56.808 259.669 57.256C259.077 57.688 258.445 58.048 257.773 58.336C257.101 58.624 256.421 58.768 255.733 58.768C254.485 58.768 253.453 58.544 252.637 58.096C251.837 57.632 251.237 56.864 250.837 55.792C250.453 54.704 250.261 53.24 250.261 51.4C250.261 51.288 250.261 51.184 250.261 51.088C250.261 50.992 250.261 50.896 250.261 50.8C250.261 50.4 250.253 50.056 250.237 49.768C250.237 49.48 250.197 49.256 250.117 49.096C249.861 49.528 249.549 50.072 249.181 50.728C248.829 51.384 248.437 52.088 248.005 52.84C247.573 53.592 247.109 54.336 246.613 55.072C246.133 55.808 245.645 56.48 245.149 57.088C244.653 57.696 244.157 58.184 243.661 58.552C243.181 58.92 242.725 59.104 242.293 59.104C241.973 59.104 241.621 58.944 241.237 58.624C240.869 58.304 240.557 57.872 240.301 57.328C240.045 56.768 239.917 56.136 239.917 55.432C239.229 56.296 238.517 57.088 237.781 57.808C237.045 58.512 236.317 59.072 235.597 59.488C234.893 59.92 234.221 60.136 233.581 60.136C233.053 60.136 232.541 59.984 232.045 59.68C231.565 59.376 231.149 58.832 230.797 58.048C230.445 57.264 230.221 56.152 230.125 54.712C229.373 55.656 228.589 56.488 227.773 57.208C226.973 57.928 226.181 58.488 225.397 58.888C224.629 59.288 223.901 59.488 223.213 59.488Z" fill="#000000"/>
</svg>
